<?xml version="1.0" encoding="UTF-8"?>
<svg xmlns="http://www.w3.org/2000/svg" xmlns:xlink="http://www.w3.org/1999/xlink" viewBox="0 0 23.14 22.94">
  <defs>
    <style>
      .cls-1 {
        fill: #ffc985;
      }

      .cls-2 {
        isolation: isolate;
      }

      .cls-3 {
        fill: url(#linear-gradient);
      }

      .cls-3, .cls-4 {
        mix-blend-mode: overlay;
      }

      .cls-4, .cls-5 {
        fill: #fefefe;
      }

      .cls-6 {
        fill: #ffa0b9;
      }
    </style>
    <linearGradient id="linear-gradient" x1="-150.54" y1="90.17" x2="-145" y2="85.88" gradientTransform="translate(125.81 -108.37) rotate(-15.66)" gradientUnits="userSpaceOnUse">
      <stop offset="0" stop-color="#fff" stop-opacity="0"/>
      <stop offset="1" stop-color="#ffebc4"/>
    </linearGradient>
  </defs>
  <g class="cls-2">
    <g id="Layer_2" data-name="Layer 2">
      <g id="Layer_1-2" data-name="Layer 1">
        <g>
          <g>
            <path class="cls-1" d="M11.58,22.42c-4.98,0-9.37-3.25-10.67-7.91-.32-1.13-.44-2.32-.37-3.44C.78,6.35,4.11,2.27,8.82.95c1.03-.29,2.1-.44,3.18-.44.13,0,.25,0,.38,0,.24,0,.45.18.49.42.04.24-.08.48-.31.57-3.72,1.56-5.74,5.57-4.68,9.33.93,3.32,4.06,5.64,7.62,5.64.75,0,1.5-.1,2.24-.31,1.56-.44,2.94-1.3,3.97-2.5.1-.12.25-.18.39-.18.08,0,.17.02.24.06.21.11.32.36.26.59-1.01,3.75-4.03,6.75-7.88,7.83-1.04.29-2.09.43-3.14.43Z"/>
            <path class="cls-6" d="M12,1.04c.12,0,.24,0,.36,0-3.92,1.64-6.12,5.88-4.98,9.95,1.02,3.65,4.41,6.02,8.12,6.02.78,0,1.58-.11,2.38-.33,1.71-.48,3.16-1.43,4.22-2.66-.94,3.47-3.7,6.4-7.52,7.47h-.02c-1,.28-2,.41-2.98.41-4.66,0-8.89-2.96-10.17-7.53-.3-1.09-.42-2.2-.35-3.27.23-4.38,3.32-8.37,7.9-9.66,1.02-.29,2.04-.42,3.04-.42M12,0c-1.13,0-2.24.15-3.32.45C3.76,1.83.28,6.1.02,11.06c-.08,1.16.06,2.41.39,3.6,1.37,4.88,5.96,8.28,11.17,8.28,1.09,0,2.19-.15,3.25-.44,4.05-1.14,7.21-4.28,8.27-8.2.13-.47-.09-.96-.52-1.19-.15-.08-.32-.12-.49-.12-.29,0-.58.12-.78.36-.97,1.12-2.26,1.93-3.72,2.34-.69.19-1.39.29-2.1.29-3.32,0-6.25-2.17-7.12-5.27-.98-3.51.9-7.25,4.38-8.71.45-.19.71-.67.62-1.15-.09-.48-.5-.83-.99-.85-.13,0-.26,0-.39,0h0Z"/>
          </g>
          <path class="cls-3" d="M4.42,5.03s-5.14,4.35-1.05,12.1c4.09,7.75,13.71,1.3,13.71,1.3,0,0-7.16,1.48-10.91-2.87-3.75-4.35-1.74-10.53-1.74-10.53Z"/>
          <path class="cls-4" d="M14.56,21.5c-5.72,1.58-11.6-1.59-13.15-7.12-.3-1.09-.42-2.2-.35-3.27,1.5,4.18,5.07,9.65,13.5,10.39Z"/>
          <path class="cls-5" d="M5.64,14.71c.22.78-.24,1.58-1.01,1.8s-1.58-.24-1.8-1.01c-.22-.78.24-1.58,1.01-1.8.78-.22,1.58.24,1.8,1.01Z"/>
          <path class="cls-5" d="M5.63,11.74c.12.44-.13.9-.57,1.02-.44.12-.9-.13-1.02-.57-.12-.44.13-.9.57-1.02.44-.12.9.13,1.02.57Z"/>
        </g>
      </g>
    </g>
  </g>
</svg>