<?xml version="1.0" encoding="UTF-8"?>
<svg id="Layer_2" data-name="Layer 2" xmlns="http://www.w3.org/2000/svg" xmlns:xlink="http://www.w3.org/1999/xlink" viewBox="0 0 299.74 28.67">
  <defs>
    <style>
      .cls-1 {
        fill: url(#linear-gradient);
      }

      .cls-2 {
        fill: #9ca9f2;
      }

      .cls-3 {
        fill: #fff;
      }
    </style>
    <linearGradient id="linear-gradient" x1="149.87" y1="5.73" x2="149.87" y2="52.3" gradientUnits="userSpaceOnUse">
      <stop offset="0" stop-color="#acc4f5"/>
      <stop offset=".74" stop-color="#aaa8f0"/>
      <stop offset="1" stop-color="#aa9def"/>
    </linearGradient>
  </defs>
  <g id="Layer_1-2" data-name="Layer 1">
    <g>
      <path class="cls-2" d="M2.02,7.81S19.66-4.68,62.25,1.98s69.04,5.76,101.66,3.13c32.61-2.63,48.5-3.96,75.21-1.19,26.7,2.77,48.58,0,48.58,0,0,0-46.92,19.3-54.24,18.75s-69.88-7.21-75.54-5.21-74.21,6.1-91.51,5.21-36.16.51-47.14,0C8.28,22.16,2.02,7.81,2.02,7.81Z"/>
      <path class="cls-1" d="M299.74,1.29v19.19c0,4.53-3.67,8.19-8.19,8.19H8.19c-4.52,0-8.19-3.67-8.19-8.19V7.25c8.59,2.59,28.41,5.9,66.07-.11C120.31-1.51,130.63-2.18,167.9,4.48c37.27,6.66,64.64,9.22,105.2.78,10.74-2.23,19.52-3.43,26.65-3.97Z"/>
      <path class="cls-3" d="M1.39,7.89c22.5,4.35,45.52,1.42,68.02-1.43,3.23-.4,6.46-.87,9.69-1.32-12.79,2.6-25.74,4.4-38.76,5.41-12.99.9-26.28.58-38.95-2.67h0Z"/>
      <path class="cls-3" d="M166.71,4.27c18.98,3.19,38.17,5.84,57.45,5.83,19.3-.03,38.47-2.52,57.35-6.45-4.69,1.15-9.4,2.2-14.13,3.14-14.23,2.78-28.71,4.16-43.21,4.3-19.34-.09-38.57-2.84-57.46-6.83h0Z"/>
      <g>
        <path class="cls-3" d="M137.04,18.15c-2.14.29-2.38.53-2.67,2.67-.29-2.14-.53-2.38-2.67-2.67,2.14-.29,2.38-.53,2.67-2.67.29,2.14.53,2.38,2.67,2.67Z"/>
        <path class="cls-3" d="M75.73,25.42c-1.07.15-1.19.26-1.33,1.33-.15-1.07-.26-1.19-1.33-1.33,1.07-.15,1.19-.26,1.33-1.33.15,1.07.26,1.19,1.33,1.33Z"/>
        <path class="cls-3" d="M266.74,22.67c-1.07.15-1.19.26-1.33,1.33-.15-1.07-.26-1.19-1.33-1.33,1.07-.15,1.19-.26,1.33-1.33.15,1.07.26,1.19,1.33,1.33Z"/>
        <path class="cls-3" d="M21.61,14.83c-2.14.29-2.38.53-2.67,2.67-.29-2.14-.53-2.38-2.67-2.67,2.14-.29,2.38-.53,2.67-2.67.29,2.14.53,2.38,2.67,2.67Z"/>
        <path class="cls-3" d="M235.39,16.75c-2.14.29-2.38.53-2.67,2.67-.29-2.14-.53-2.38-2.67-2.67,2.14-.29,2.38-.53,2.67-2.67.29,2.14.53,2.38,2.67,2.67Z"/>
        <path class="cls-3" d="M181.44,13.08c.07,0,.14.02.2.06.09.06.16.16.16.28v.82s.68.52.68.52c.06.05.1.11.13.18,0,.01,0,.03.01.05.04.16-.04.34-.21.39l-.79.24-.25.87c-.05.17-.19.27-.34.27-.11,0-.22-.05-.3-.17l-.51-.78-.92-.02c-.32,0-.47-.37-.27-.61l.58-.7-.25-.84c-.02-.07-.02-.14,0-.2.04-.13.17-.22.32-.22.05,0,.09,0,.14.03l.79.32.66-.44c.05-.03.11-.05.16-.05M181.44,12.7c-.13,0-.26.04-.37.11l-.5.33-.61-.25c-.09-.04-.19-.06-.28-.06-.31,0-.58.19-.68.48-.05.12-.05.27-.01.42l.19.65-.45.54c-.19.23-.23.53-.11.8.12.26.38.43.67.43h.72s.4.63.4.63c.14.21.37.34.61.34.33,0,.61-.22.7-.54l.19-.67.59-.18c.35-.1.55-.46.47-.83,0-.02-.03-.09-.04-.11-.04-.11-.12-.24-.24-.33l-.53-.41v-.63c0-.24-.13-.47-.33-.6-.11-.08-.26-.13-.41-.13h0Z"/>
        <path class="cls-3" d="M290.48,10.51s.07.01.1.03c.05.03.08.08.08.14v.41s.34.26.34.26c.03.02.05.06.06.09,0,0,0,.01,0,.02.02.08-.02.17-.11.19l-.4.12-.12.44c-.02.09-.1.13-.17.13-.06,0-.11-.03-.15-.08l-.26-.39h-.46c-.16-.01-.24-.19-.14-.31l.29-.35-.12-.42s0-.07,0-.1c.02-.07.09-.11.16-.11.02,0,.05,0,.07.01l.4.16.33-.22s.05-.02.08-.02M290.48,10.32c-.07,0-.13.02-.19.06l-.25.16-.3-.12s-.09-.03-.14-.03c-.15,0-.29.1-.34.24-.02.06-.03.13,0,.21l.1.33-.23.27c-.09.11-.12.27-.05.4.06.13.19.21.33.22h.36s.2.31.2.31c.07.11.18.17.31.17.16,0,.31-.11.35-.27l.1-.34.3-.09c.17-.05.28-.23.24-.42,0-.01-.01-.05-.02-.06-.02-.06-.06-.12-.12-.16l-.27-.2v-.32c0-.12-.06-.23-.17-.3-.06-.04-.13-.06-.2-.06h0Z"/>
        <path class="cls-3" d="M82.8,10.44c.07,0,.14.02.2.07l.66.48.82-.23s.07-.01.1-.01c.04,0,.08,0,.12.02.01,0,.03,0,.04.02.15.07.25.23.18.4l-.28.78.55.72c.19.25.03.57-.28.57,0,0-.02,0-.02,0l-.93-.06-.56.73c-.08.1-.18.15-.29.15-.16,0-.32-.11-.37-.29l-.21-.88-.82-.3c-.07-.03-.12-.07-.16-.12-.1-.15-.07-.37.12-.48l.73-.44.05-.79c0-.14.11-.24.23-.28.04-.01.08-.02.12-.02M82.8,10.06c-.09,0-.17.02-.25.05-.27.09-.46.33-.48.62l-.03.59-.56.34c-.18.11-.3.27-.34.47-.04.19,0,.39.11.55.07.11.18.2.33.26l.64.23.17.68c.08.34.38.58.73.58.23,0,.45-.11.59-.29l.44-.57.73.04h0c.33,0,.58-.15.7-.4.12-.25.09-.55-.08-.78l-.43-.55.21-.58c.13-.34-.04-.72-.39-.87-.02,0-.09-.03-.11-.04-.05-.02-.13-.03-.21-.03-.07,0-.14,0-.2.03l-.64.18-.51-.37c-.12-.09-.27-.14-.42-.14h0Z"/>
        <path class="cls-3" d="M44.94,23.17l.83-.4.81.46c.28.16.58-.07.52-.38l-.18-.89.6-.57c.13-.12.12-.31.01-.44-.01-.01-.02-.02-.03-.03-.05-.05-.12-.09-.19-.1l-.84-.15-.37-.73c-.06-.11-.16-.17-.27-.18-.13-.02-.26.03-.33.15l-.39.69-.85.07c-.21.02-.35.2-.32.38,0,.06.03.12.08.18l.6.63-.2.88c-.07.31.24.56.52.42Z"/>
        <path class="cls-3" d="M116.53,12.23l.42-.2.41.23c.14.08.29-.04.26-.19l-.09-.45.3-.29c.07-.06.06-.16,0-.22,0,0-.01-.01-.02-.02-.02-.02-.06-.04-.1-.05l-.42-.08-.19-.36c-.03-.05-.08-.09-.14-.09-.06,0-.13.02-.17.08l-.2.35-.43.04c-.11,0-.17.1-.16.19,0,.03.02.06.04.09l.3.32-.1.44c-.03.15.12.28.26.21Z"/>
        <path class="cls-3" d="M218.4,23.32l.42-.2.41.23c.14.08.29-.04.26-.19l-.09-.45.3-.29c.07-.06.06-.16,0-.22,0,0-.01-.01-.02-.02-.02-.02-.06-.04-.1-.05l-.42-.08-.19-.36c-.03-.05-.08-.09-.14-.09-.06,0-.13.02-.17.08l-.2.35-.43.04c-.11,0-.17.1-.16.19,0,.03.02.06.04.09l.3.32-.1.44c-.03.15.12.28.26.21Z"/>
        <path class="cls-3" d="M275.91,18.08l.02-.92.78-.51c.26-.17.2-.55-.1-.64l-.87-.25-.24-.79c-.05-.17-.22-.25-.39-.21-.02,0-.03,0-.05.01-.07.02-.13.06-.18.13l-.52.68h-.82c-.12,0-.22.07-.28.16-.07.11-.09.25-.02.36l.44.66-.32.79c-.08.2.02.4.19.46.06.02.13.03.2,0l.84-.25.7.58c.24.2.61.04.61-.27Z"/>
        <circle class="cls-3" cx="105.34" cy="4.52" r=".62"/>
        <circle class="cls-3" cx="159.15" cy="18.55" r=".4"/>
        <circle class="cls-3" cx="208.11" cy="15.4" r="1.06"/>
        <circle class="cls-3" cx="293.9" cy="21.49" r="1"/>
        <circle class="cls-3" cx="282.54" cy="6.61" r=".28"/>
        <circle class="cls-3" cx="247.48" cy="13.13" r=".87"/>
        <circle class="cls-3" cx="262.73" cy="23.64" r=".16"/>
        <circle class="cls-3" cx="146.46" cy="6.95" r=".94"/>
        <circle class="cls-3" cx="185.33" cy="21.86" r=".25"/>
        <circle class="cls-3" cx="102.47" cy="21.11" r=".62"/>
        <circle class="cls-3" cx="67.59" cy="20.8" r=".31"/>
        <circle class="cls-3" cx="62.44" cy="12.9" r=".19"/>
        <circle class="cls-3" cx="29.5" cy="22.02" r=".28"/>
        <circle class="cls-3" cx="1.71" cy="13.03" r=".31"/>
        <circle class="cls-3" cx="12.45" cy="25.32" r="1.09"/>
      </g>
    </g>
  </g>
</svg>