<?xml version="1.0" encoding="UTF-8"?>
<svg xmlns="http://www.w3.org/2000/svg" xmlns:xlink="http://www.w3.org/1999/xlink" viewBox="0 0 31.23 17.65">
  <defs>
    <style>
      .cls-1 {
        fill: #fff;
      }

      .cls-1, .cls-2 {
        mix-blend-mode: overlay;
      }

      .cls-3 {
        fill: #171717;
      }

      .cls-4 {
        fill: url(#linear-gradient);
      }

      .cls-5 {
        isolation: isolate;
      }

      .cls-2 {
        opacity: .51;
      }
    </style>
    <linearGradient id="linear-gradient" x1="-49.54" y1="18.15" x2="-79.88" y2="-3.68" gradientTransform="translate(88.09 -4.08) rotate(-9.42)" gradientUnits="userSpaceOnUse">
      <stop offset=".31" stop-color="#949494"/>
      <stop offset=".81" stop-color="#171718"/>
    </linearGradient>
  </defs>
  <g class="cls-5">
    <g id="Layer_2" data-name="Layer 2">
      <g id="Layer_1-2" data-name="Layer 1">
        <g>
          <g>
            <path class="cls-4" d="M23.87,17.24s-.07,0-.1-.01c-.08-.02-7.62-1.92-15.68-7.12-.02-.01-.04-.02-.05-.03-2.75-1.77-5.26-3.75-7.5-5.87-.08-.08-.13-.18-.13-.29s.04-.22.12-.3L3.68.53c.08-.08.18-.12.29-.12.08,0,.16.02.23.07.03.02,2.59,1.7,6.48,3.41.94.42,1.86.79,2.75,1.13,3.75,1.42,7.35,2.28,10.7,2.56.09,0,.17.04.24.1l6.32,5.49c.1.09.16.22.14.36-.02.13-.1.25-.22.32l-6.55,3.35c-.06.03-.12.04-.19.04Z"/>
            <path class="cls-3" d="M3.97.82s2.57,1.69,6.54,3.45h0c.86.39,1.79.77,2.76,1.14,3.18,1.21,6.92,2.26,10.82,2.58l6.32,5.49-3.97,2.04-2.58,1.32s-7.47-1.85-15.57-7.08c-.02,0-.03-.02-.05-.03-2.48-1.61-5.02-3.53-7.43-5.82L3.97.82M3.97,0c-.21,0-.42.08-.57.23L.25,3.32C.09,3.48,0,3.69,0,3.91c0,.22.09.43.26.59,2.25,2.14,4.79,4.13,7.55,5.91.01,0,.03.02.04.03.01,0,.03.02.04.03,8.11,5.23,15.47,7.08,15.78,7.16.06.02.13.02.2.02.13,0,.26-.03.37-.09l2.58-1.32,3.97-2.04c.24-.12.41-.36.44-.63.03-.27-.07-.54-.28-.72l-6.32-5.49c-.13-.11-.3-.18-.47-.2-3.32-.27-6.88-1.12-10.59-2.53-.88-.33-1.78-.7-2.68-1.1-.02,0-.04-.02-.05-.03C6.99,1.81,4.44.15,4.42.13c-.14-.09-.29-.13-.45-.13h0Z"/>
          </g>
          <ellipse class="cls-1" cx="21.64" cy="9.27" rx=".69" ry="1.86" transform="translate(8.4 28.73) rotate(-78.97)"/>
          <ellipse class="cls-1" cx="23.22" cy="10.56" rx=".39" ry=".77" transform="translate(8.41 31.33) rotate(-78.97)"/>
          <path class="cls-2" d="M26.44,15.51l-2.58,1.32S11.06,13.66.82,3.91L3.97.82s3.82,2.51,9.31,4.58c1.08,2.22,4.8,8.54,13.17,10.11Z"/>
          <path class="cls-1" d="M30.41,13.48l-3.97,2.04-2.58,1.32s-7.47-1.85-15.57-7.08c5.75,3.4,15.54,6.36,15.54,6.36l5.15-2.84-5.09-4.56c-7.02-.24-13.38-4.44-13.38-4.44.86.38,1.79.76,2.76,1.13,3.18,1.21,6.92,2.26,10.82,2.58l6.32,5.49Z"/>
        </g>
      </g>
    </g>
  </g>
</svg>