<?xml version="1.0" encoding="UTF-8"?>
<svg xmlns="http://www.w3.org/2000/svg" xmlns:xlink="http://www.w3.org/1999/xlink" viewBox="0 0 18.54 45.14">
  <defs>
    <style>
      .cls-1 {
        fill: url(#linear-gradient-2);
      }

      .cls-2 {
        fill: url(#linear-gradient);
      }

      .cls-3 {
        fill: #9ca9f2;
      }

      .cls-4 {
        isolation: isolate;
      }

      .cls-5 {
        fill: #9f9bb3;
      }

      .cls-6 {
        fill: #fff;
      }

      .cls-7 {
        opacity: .32;
      }

      .cls-7, .cls-8 {
        mix-blend-mode: overlay;
      }

      .cls-8 {
        opacity: .65;
      }
    </style>
    <linearGradient id="linear-gradient" x1="124.7" y1="22.57" x2="142.5" y2="22.57" gradientTransform="translate(-124.33)" gradientUnits="userSpaceOnUse">
      <stop offset="0" stop-color="#f5eeff"/>
      <stop offset="1" stop-color="#e8fcff"/>
    </linearGradient>
    <linearGradient id="linear-gradient-2" x1="134.23" y1="21.28" x2="140.55" y2="42.35" gradientTransform="translate(-124.33)" gradientUnits="userSpaceOnUse">
      <stop offset="0" stop-color="#acc4f5"/>
      <stop offset=".74" stop-color="#aaa8f0"/>
      <stop offset="1" stop-color="#aa9def"/>
    </linearGradient>
  </defs>
  <g class="cls-4">
    <g id="Layer_2" data-name="Layer 2">
      <g id="Layer_1-2" data-name="Layer 1">
        <g>
          <g>
            <path class="cls-2" d="M13.98,44.77c-1.26,0-2.23-.63-2.63-1.25-.16-.23-.39-1.12-1.06-3.8l-.2-.82c-.74-3.06-2.11-8.76-3.04-11.14-1.22-3.11-2.79-6.19-3.94-8.44l-.62-1.21C1.42,15.97.21,12.39.39,11.4c.1-.59.58-.97,1.2-.97.43,0,.78.19.89.48.02.06.05.19.09.4.2.98.75,3.74,2.43,5.8.06-1.42.31-4.25,1.24-7.2.51-1.6.96-3.35,1.36-4.89.95-3.68,1.23-4.55,1.78-4.63.02,0,.09,0,.11,0,.92,0,2.35,1.94,2.55,3.46.13.96-.55,3.36-1.45,6.41-.37,1.24-.71,2.4-.76,2.81-.14,1.1.96,6.57,1.76,9.18.5,1.66,1.64,3.74,2.27,4.83.09.15.17.29.24.41.27-.67.68-1.46,1.14-1.64.15-.06.32-.09.5-.09.67,0,1.41.44,1.45,1.15.03.38-.2,1.05-.55,2.02-.18.49-.36.99-.4,1.24-.03.32.44,2.76.85,4.91.7,3.65,1.15,6.08,1.09,6.73-.11,1.43-1.89,2.63-3.48,2.91-.24.04-.48.07-.71.07Z"/>
            <path class="cls-5" d="M9.49.75c.62,0,1.98,1.69,2.18,3.13.2,1.49-2.06,7.92-2.21,9.12-.15,1.19,1,6.81,1.77,9.34.5,1.65,1.59,3.68,2.3,4.91.38.66.65,1.08.65,1.08,0,0,.63-1.93,1.19-2.15.11-.04.23-.06.36-.06.5,0,1.05.33,1.07.79.04.58-.83,2.5-.95,3.18-.11.69,2.04,10.48,1.94,11.67-.09,1.2-1.71,2.31-3.17,2.57-.22.04-.44.06-.64.06-1.13,0-1.99-.57-2.32-1.08-.16-.23-.61-2.1-1.21-4.51-.91-3.78-2.16-8.9-3.05-11.19-1.47-3.75-3.46-7.48-4.57-9.69-1.12-2.21-2.22-5.62-2.07-6.46.09-.49.49-.66.83-.66.26,0,.49.1.54.23.12.33.62,4.5,3.23,7.01,0,0-.05-3.92,1.24-8.03C7.9,5.91,8.84.84,9.44.75c.02,0,.03,0,.05,0M9.49,0c-.06,0-.12,0-.18.01-.81.12-1.08,1.04-2.08,4.9-.4,1.54-.85,3.28-1.35,4.87-.75,2.38-1.06,4.68-1.19,6.25-1.16-1.85-1.59-3.98-1.76-4.81-.05-.24-.07-.35-.11-.45-.17-.44-.65-.73-1.24-.73-.8,0-1.44.52-1.57,1.28-.21,1.2,1.15,4.97,2.14,6.93.18.36.39.77.62,1.21,1.14,2.24,2.71,5.31,3.92,8.41.92,2.36,2.28,8.04,3.02,11.09l.21.85c.74,2.96.91,3.63,1.11,3.91.45.69,1.54,1.4,2.93,1.4.26,0,.52-.02.78-.07,1.72-.31,3.66-1.64,3.78-3.25.06-.69-.38-3.04-1.1-6.83-.37-1.94-.83-4.35-.84-4.81.05-.22.22-.71.38-1.14.38-1.05.61-1.72.57-2.18-.05-.92-.98-1.49-1.82-1.49-.22,0-.44.04-.63.12-.4.16-.75.62-1.04,1.17-.64-1.12-1.65-3.01-2.11-4.53-.84-2.75-1.86-8.07-1.74-9.03.05-.37.4-1.58.75-2.75.94-3.19,1.6-5.54,1.46-6.57-.21-1.58-1.72-3.78-2.92-3.78h0Z"/>
          </g>
          <g>
            <path class="cls-1" d="M15.36,42.72c-1.32.7-2.69.6-3.06-.12-.37-.73-1.64-7.61-3.16-12.33-1.2-3.77-2.57-6.51-3.08-7.46-.13-.24-.2-.37-.2-.37.44-2.79,3.22-3.3,3.61-3.12.04.02.08.07.13.15.4.72,1.05,3.75,1.9,6.04.94,2.53,2.47,4.75,2.55,4.75.06-.03,1.41-3.4,1.6-3.4.2,0,.5.28.48.65-.03.37-.72,1.89-.77,2.09s-.05.54-.05,1.66,1.11,8.7,1.11,9.07.25,1.69-1.06,2.39Z"/>
            <path class="cls-3" d="M9.6,19.47c.01.7-.15,2.05-1.42,2.87-.78.51-1.53.57-2.12.47-.13-.24-.2-.37-.2-.37.44-2.79,3.22-3.3,3.61-3.12.04.02.08.07.13.15Z"/>
          </g>
          <g>
            <circle class="cls-6" cx="8.28" cy="24" r=".1"/>
            <circle class="cls-6" cx="11.15" cy="28.78" r=".38"/>
            <circle class="cls-6" cx="13.97" cy="34.16" r=".43"/>
            <circle class="cls-6" cx="12.68" cy="38.03" r=".26"/>
            <circle class="cls-6" cx="14.86" cy="40.32" r=".08"/>
            <circle class="cls-6" cx="14.49" cy="30.69" r=".09"/>
            <circle class="cls-6" cx="10.57" cy="31.44" r=".19"/>
          </g>
          <path class="cls-7" d="M17.79,41.76c-.09,1.2-1.71,2.31-3.17,2.57-1.45.27-2.57-.42-2.96-1.02-.16-.23-.61-2.1-1.21-4.51,2.82-3.26,3.24-8.02,3.08-11.55.38.66.65,1.08.65,1.08,0,0,.63-1.93,1.19-2.15.56-.22,1.4.15,1.43.73.04.58-.83,2.5-.95,3.18-.11.69,2.04,10.48,1.94,11.67Z"/>
          <g class="cls-8">
            <path class="cls-6" d="M5.51,21.29l2.24,5.33c.2.48.67.88,1.23.7.46-.15.92-.71.7-1.23l-2.24-5.33c-.2-.48-.67-.88-1.23-.7-.46.15-.92.71-.7,1.23h0Z"/>
            <path class="cls-6" d="M10.55,32.31c1.29,0,1.29-2,0-2s-1.29,2,0,2h0Z"/>
            <path class="cls-6" d="M7.95,7.86c-.36,1.4-.62,2.82-.79,4.26-.03.27.25.5.5.5.3,0,.47-.23.5-.5.16-1.35.42-2.68.75-3.99.16-.62-.8-.89-.96-.27h0Z"/>
            <path class="cls-6" d="M7.27,15.47c.64,0,.64-1,0-1s-.64,1,0,1h0Z"/>
          </g>
        </g>
      </g>
    </g>
  </g>
</svg>